/* XPM */
static char *b3ae59fdd54941a5cd7d070e92afe7423GWaBv3QKYODJELI[] = {
/* columns rows colors chars-per-pixel */
"32 32 203 2 ",
"   c #D47E31",
".  c #EA7A38",
"X  c #DD8C17",
"o  c #FF8E00",
"O  c #FF8E09",
"+  c #FE9506",
"@  c #FF950E",
"#  c #FF9D0B",
"$  c #E3831F",
"%  c #F98F15",
"&  c #E8961C",
"*  c #FF9514",
"=  c #FF9913",
"-  c #FF941C",
";  c #FF9A1C",
":  c #F4981C",
">  c #FFA113",
",  c #CC872C",
"<  c #D48924",
"1  c #DD942E",
"2  c #D98731",
"3  c #D48C35",
"4  c #D4863C",
"5  c #DA843C",
"6  c #DC8D3A",
"7  c #D78738",
"8  c #CF9033",
"9  c #CC933C",
"0  c #C3903D",
"q  c #DB9239",
"w  c #D69437",
"e  c #E38D26",
"r  c #E68D2E",
"t  c #EA8A2D",
"y  c #F48C27",
"u  c #FD8C25",
"i  c #F4862C",
"p  c #EF9527",
"a  c #E5952C",
"s  c #E29024",
"d  c #FF9323",
"f  c #FD942D",
"g  c #F49A2A",
"h  c #E68932",
"j  c #E88E36",
"k  c #E48B3D",
"l  c #E38235",
"z  c #F18B37",
"x  c #F98937",
"c  c #E5993C",
"v  c #FA9E37",
"b  c #FC943C",
"n  c #F6993A",
"m  c #F3A028",
"M  c #FFA02C",
"N  c #FFA433",
"B  c #B68F52",
"V  c #BD8A5E",
"C  c #B6896C",
"Z  c #C88D49",
"A  c #C38D4F",
"S  c #D88746",
"D  c #DB8B45",
"F  c #D48A4B",
"G  c #CB9847",
"H  c #CB9044",
"J  c #DA934D",
"K  c #D7994E",
"L  c #CF8E58",
"P  c #C68B59",
"I  c #D68E53",
"U  c #DA9353",
"Y  c #DD9658",
"T  c #E68548",
"R  c #F48941",
"E  c #E1964D",
"W  c #F29D43",
"Q  c #C8A049",
"!  c #D5A154",
"~  c #ECAD43",
"^  c #E4A95B",
"/  c #FCA45B",
"(  c #F8A457",
")  c #C88D6F",
"_  c #C59169",
"`  c #E19B60",
"'  c #DDA779",
"]  c #DCAA77",
"[  c #EAA56E",
"{  c #EAB164",
"}  c #FFB664",
"|  c #EEB075",
" . c #FFB973",
".. c #ECA872",
"X. c #FFC15B",
"o. c #FEC279",
"O. c #BCA289",
"+. c #CA9D8A",
"@. c #DBBA99",
"#. c #ECB78D",
"$. c #FFBD8A",
"%. c #F3B889",
"&. c #EABC9D",
"*. c #E7B794",
"=. c #FFB593",
"-. c #FDBC96",
";. c #F7BE9C",
":. c #DABAAD",
">. c #DDB3A3",
",. c #E1BEA0",
"<. c #E5B9A8",
"1. c #F3BDA2",
"2. c #FCBAA0",
"3. c #EFBEB0",
"4. c #FFC28D",
"5. c #FFC98E",
"6. c #F4CB8D",
"7. c #FFD988",
"8. c #EBCC94",
"9. c #EEC29B",
"0. c #EEC99E",
"q. c #E4C99E",
"w. c #F5C494",
"e. c #FDC797",
"r. c #FFCB96",
"t. c #F3C29D",
"y. c #FCC39D",
"u. c #FFCB9E",
"i. c #F4CB9D",
"p. c #FFD693",
"a. c #FFDD95",
"s. c #FFD599",
"d. c #FFDE9C",
"f. c #FFE38E",
"g. c #FFE394",
"h. c #FFE894",
"j. c #FFE29D",
"k. c #FFEE9F",
"l. c #DBC1A8",
"z. c #DBC1B2",
"x. c #EEC1A0",
"c. c #EBCDAA",
"v. c #E5C7A9",
"b. c #F3C5A6",
"n. c #F8C5A6",
"m. c #F7CAA8",
"M. c #FDC7A9",
"N. c #FFD1A7",
"B. c #FFDBA4",
"V. c #FFD7AB",
"C. c #FEDCAC",
"Z. c #EECBB7",
"A. c #FFD2B3",
"S. c #FFDBB7",
"D. c #FFD7B9",
"F. c #FFDCB8",
"G. c #F3D4B8",
"H. c #F4C6B7",
"J. c #FFE1A3",
"K. c #FFEDA3",
"L. c #FFE1AE",
"P. c #FFE3B3",
"I. c #FFE4BD",
"U. c #FFEBB2",
"Y. c #FFF5BF",
"T. c #EBCAC3",
"R. c #EFDFC8",
"E. c #F7D7C2",
"W. c #F7D9C4",
"Q. c #FED8C1",
"!. c #FEDECA",
"~. c #F4D6CC",
"^. c #FDDFD5",
"/. c #FFE4C4",
"(. c #FFEDC0",
"). c #FFEACF",
"_. c #FFF3C6",
"`. c #FFF3CE",
"'. c #FFE6D0",
"]. c #FFEDDB",
"[. c #FFECD4",
"{. c #FFF3D3",
"}. c #FEFAD5",
"|. c #FFF3DB",
" X c #FFFADD",
".X c #FFEFEA",
"XX c #EEF7E4",
"oX c #FFF3E3",
"OX c #FFFAE4",
"+X c #FFF5EB",
"@X c #FFFCEC",
"#X c #F0FBEB",
"$X c #F2F7F2",
"%X c #FFF5F3",
"&X c #F7FCF5",
"*X c #FFFDF4",
"=X c #FEF6FB",
"-X c #F4FCFF",
";X c #FFF9FF",
":X c #FAFFFF",
">X c #FFFFFF",
",X c #FDFDFE",
"<X c #FEFCFC",
/* pixels */
"*X=X,X,X-X,X;X;X%X]./.B G 9 4 D I J < w B P._.{.%X,X<X+X,X:X;X;X",
"*X<X,X,X<X<X+X+XT.:.G.B.j.g.p.j.B.j.f.k.L.c.#.m.+X+X%X@X:X:X;X;X",
";X,X&XXX@XoXS.A.<.:.!.}.B.p.g.g.d.J.B.S.OXR.@.&.D.!..X*X$X:X&X*X",
";X,X#X@XOX*._ #.{.|.}.(.' P U 4 4 Y _ +.).|.}.}.*.C :.@X<X#X*X@X",
",X<X*X@XO.!.oX[.Y.o.w { `. XJ.E c p.OX].| U w.{.].oX/.O.@X&X*X*X",
":X<X].v.W.oX'.&.%.^ 3 ! }.@XC.A H s.+X+X` 5 [ -.2.'.].G.c. X*X*X",
"-X@XF.P  X|.r.F #.0.0.c. X*XoXl.q.`.*X%X1.$. .D S u.].@XV P. X*X",
"&X@XC.' OX*.5 ( {.|.OXOX@X@X*X@X X@X%X=X+X).a.q W S ,.OX] B. X@X",
"}.c.v.].|.e.l / {.+X@X@X+X%X*X+XOXOX<X%X%X|.d.9 c 2 $.{.{.v.Z.oX",
"_.*.:.+Xy.[ z z 4.1.~.%XoXD.1.n.w.w.b.b.n.9.C.J.7.} ( 4.|.z.>.oX",
"N.y.W. X! 1 N f u 5 3.=XOXw., a e e t h h 4 &. X}.r.  E |.^.H.!.",
"T C.}.U.~ & : % * i 3.%XOX5.X > = ; - d d j ;.+XoX9.2 ( I.|.D._ ",
"4 K.K.G m + + # @ y m.+XoXe.s ; * ; d d u x =.oX@Xx.6 n U B.K.0 ",
"3 f.g.8 N @ o o O $ 0.@X+X;.4 r t t r t i . =.[.`.6.a v 4 d.h.8 ",
"K a.B.D b u - d M j t.@X+XE.x.y.e.y.8.8.e.e.A.B.h.X.& p 6 B.p.k ",
"Z d.C.T R b u d f k t.OX@X+X+X+X.X@X X}. X|.A.L w s : g 6 d.p.T ",
"Z B.C.T R W u d f k ;.@X+X@X@X+X.X+X X X X|.A.L q & : g 6 B.p.R ",
"K g.B.D x u - - M j t.+X+XE.x.y.;.e.8.8.r.$.V.V.g.X.& p 5 j.p.T ",
"3 f.a.8 N @ o o + e 0.@X+Xt.4 a t t r t . . =.].`.6.a v 4 j.h.8 ",
"7 k.K.Q g + + # + y m.+XoXe.s ; * ; d d u x -.oX@Xq.6 n U B.K.0 ",
"S C.}.U.~ : : % % i H.=XoX5.X > = ; - d d z ;.+XoX9.h ( I.|.D._ ",
"N.2.W. XK a N g u   3.%XoXw., a s e h h h S 9. X}.r.  J |.'.H.!.",
"(.*.:.@Xn.[ z z $.1.~.%XoXQ.1.N.w.w.b.b.b.9.C.J.7.} ( e. X:.>.oX",
"|.c.v.].oXe.l / {.+X+X@XoX@X=X+XOXOX*X%X+X|.d.9 c 2 $.{.{.l.Z.oX",
"&X@XC.' OX*.5 ( }.|.OXOX@X@X*X%XOXOX%X=X+X`.g.q W D <.OX] B. X@X",
"-X@XF.P OX{.r.F #.9.i.v.OX@X|.l.q.`.=X%X1.$. .D S u.].@XV L. X*X",
":X*X|.v.E.OX'.&.%.^ 3 ! }.OXL.A H p.@X+X` 5 [ -.;.!.].G.c.|.*X*X",
",X,X*X@XO.!.oX[._.o.q { `. XJ.K E p.|.].| U #.|.].oX!.O.*X*X*X*X",
";X,X#X@XOX&.V #.|.|.`.(.' L U 4 7 Y ) +.). X}.}.*.C l.@X&X$X*X@X",
",X,X&XXX@XOXS.A.<.:.R.}.B.p.g.a.a.J.B.F.OX/.@.&.A.!.OX*X$X:X&X*X",
"<X<X<X,X<X<X.X%XT.:.G.B.j.h.a.j.d.g.f.k.L.c.*.b.+X%X%X%X:X:X,X;X",
"%X=X;X,X-X,X;X;X%X]./.B G 9 4 S I J < w B P._.`.=X;X<X%X&X:X;X;X"
};
