/* XPM */
static char *_e0a6420219048bb8abd07f1685572bbBCaxmtCDTmPpw2lB[] = {
/* columns rows colors chars-per-pixel */
"32 32 2 1 ",
"  c black",
". c white",
/* pixels */
"                                ",
"                                ",
"                                ",
"                         .      ",
"                        ...     ",
"                         .      ",
"             .. ...             ",
"           ... ......           ",
"    .    ...  .........         ",
"   ...  ... ...  .  ....        ",
"    .   .. ....  .  .....       ",
"       .. ...        ....    .  ",
"       .. ...         ....  ... ",
"       . .....   ...  ....   .  ",
"      .. .....   ...  .....     ",
"      .. .....   ...  .....     ",
"      .. .....       ......     ",
"      .. .....   ...  .....     ",
"      .. .....   ....  ....     ",
"       .. ....   ....  ....     ",
"       .. ....   ...   ...      ",
"        .. ..         ....      ",
"        .. ..        ....       ",
"         .. ...  .  .....       ",
"          ..  .  .  ....        ",
"           ... .......          ",
"             .. ....            ",
"                                ",
"                                ",
"                                ",
"                                ",
"                                "
};
