/* XPM */
static char *_851c1505f404705da1bae6e48193562HrdOjXhBO8Rj4oLo[] = {
/* columns rows colors chars-per-pixel */
"32 32 2 1 ",
"  c black",
". c white",
/* pixels */
"                                ",
"                                ",
"                                ",
"                                ",
"                                ",
"                                ",
"             .. ...             ",
"           ... ......           ",
"         ...  .........         ",
"        ... ............        ",
"        .. ..... . ......       ",
"       .. ...... . ......       ",
"       .. ....      ......      ",
"       . ......  ... .....      ",
"      .. ......  .... .....     ",
"      .. ......  ... ......     ",
"      .. ......     .......     ",
"      .. ......  ... ......     ",
"      .. ......  .... .....     ",
"       .. .....  .... .....     ",
"       .. .....  ...  ....      ",
"        .. ...      ......      ",
"        .. ..... . ......       ",
"         .. .... . ......       ",
"          ..  ..........        ",
"           ... .......          ",
"             .. ....            ",
"                                ",
"                                ",
"                                ",
"                                ",
"                                "
};
