/* XPM */
static char *_0e53c75134241f6e514ea9db51957d6WQkpYd1pMURpzidS[] = {
/* columns rows colors chars-per-pixel */
"32 32 2 1 ",
"  c black",
". c white",
/* pixels */
"        ................        ",
"       ..................       ",
"      ....           .....      ",
"     ...               ....     ",
"    ...                 ....    ",
"   ...       ..  ..      ....   ",
"  ...        ..  ..       ....  ",
" ...         ..  ..        .... ",
"....         ..  ..         ....",
"...       ...........       ....",
"...       ............       ...",
"...       ....     ...       ...",
"..        ....      ...       ..",
"..        ....      ...       ..",
"..        ....      ..        ..",
"..        ....     ...        ..",
"..        ...........         ..",
"..        ..........          ..",
"..        ...........         ..",
"..        ....      ..        ..",
"..        ....       ..       ..",
"..        ....       ..       ..",
"...       ....       ..       ..",
"...       ....      ...      ...",
" ...      ............      ... ",
"  ...     ...........      ...  ",
"   ...       ..  ..       ...   ",
"    ...      ..  ..      ...    ",
"     ...     ..  ..     ...     ",
"      ...              ...      ",
"       ..................       ",
"         ...............        "
};
