/* XPM */
static char *_765ccc32f174b39a7e9418eec804374TbeRZy55z2TOcL8R[] = {
/* columns rows colors chars-per-pixel */
"32 32 2 1 ",
"  c black",
". c white",
/* pixels */
"          ...........           ",
"        ................        ",
"      ...               ..      ",
"     ..                  ..     ",
"    ..       .......      ..    ",
"   ..     ....  ..  ...    ..   ",
"   .     .....  ..  ....    ..  ",
"  ..    ......  ..  .....    .  ",
"  .    ..            .....   .  ",
"  .   ...             ....   .. ",
" ..   .....    ....   .....   . ",
" .    .....    .....   ....   . ",
" .   ......    .....   .....  . ",
" .   ......    .....  ......  . ",
" .   ......    ....   ......  . ",
" .   ......          .......  . ",
" .   ......         ........  . ",
" .   ......           ......  . ",
" .   ......    .....   .....  . ",
" .   ......    ......   ....  . ",
"  .   .....    .......  ...   . ",
"  .   .....    ......   ...  .  ",
"  ..  .....    .....   ....  .  ",
"   .   ..             ....   .  ",
"   ..   .            ....   .   ",
"    ..   .....  ..  ....    .   ",
"     .    ....  ..  ...    .    ",
"      .     ..  ..  ..    .     ",
"       .      ......     .      ",
"        ..             ..       ",
"          ....      ...         ",
"            .........           "
};
