/* XPM */
static char *ec35c7ef3c4441a1cf206411e86ef230105NixTPe23D2HJG[] = {
/* columns rows colors chars-per-pixel */
"32 32 2 1 ",
"  c black",
". c white",
/* pixels */
"          ...........           ",
"        ................        ",
"      ..                ..      ",
"     ..    ..........    ..     ",
"    ..   ..............   ..    ",
"   ..   ......  ..  ....   ..   ",
"   .   .......  ..  .....   ..  ",
"  ..  ........  ..  ......   .  ",
"  .   ...            ......  .  ",
"  .  ....             .....  .. ",
" ..  ......    ....   .....   . ",
" .   ......    .....   .....  . ",
" .  .......    .....   .....  . ",
" .  .......    .....  ......  . ",
" .  .......    ....   ......  . ",
" .  .......          .......  . ",
" .  .......         ........  . ",
" .  .......           ......  . ",
" .  .......    .....   .....  . ",
" .   ......    ......   ....  . ",
"  .  ......    .......  ....  . ",
"  .  ......    ......   .... .  ",
"  ..  .....    .....   ....  .  ",
"   .  ...             .....  .  ",
"   ..  ..            .....  .   ",
"    ..  ......  ..  .....   .   ",
"     .   .....  ..  ....   .    ",
"      .   ....  ..  ...   .     ",
"       .     ........    .      ",
"        ..             ..       ",
"          .............         ",
"            .........           "
};
