/* XPM */
static char *_ccbd5bb7e054436f04cba8dbea260e8uLOofbFg77yb0fVi[] = {
/* columns rows colors chars-per-pixel */
"32 32 164 2 ",
"   c black",
".  c #010101",
"X  c #020202",
"o  c gray1",
"O  c #040404",
"+  c gray2",
"@  c #060606",
"#  c #070707",
"$  c gray3",
"%  c #090909",
"&  c gray4",
"*  c #0B0B0B",
"=  c #0C0C0C",
"-  c gray5",
";  c #0E0E0E",
":  c gray6",
">  c #101010",
",  c #111111",
"<  c gray7",
"1  c #131313",
"2  c gray8",
"3  c #151515",
"4  c #161616",
"5  c #181818",
"6  c #191919",
"7  c gray10",
"8  c gray11",
"9  c #1D1D1D",
"0  c #1E1E1E",
"q  c gray12",
"w  c #202020",
"e  c gray13",
"r  c #222222",
"t  c #232323",
"y  c gray14",
"u  c #252525",
"i  c gray15",
"p  c #272727",
"a  c #282828",
"s  c gray16",
"d  c #2A2A2A",
"f  c gray17",
"g  c #2C2C2C",
"h  c #2D2D2D",
"j  c gray18",
"k  c #2F2F2F",
"l  c gray19",
"z  c #313131",
"x  c #3A3A3A",
"c  c #3C3C3C",
"v  c gray25",
"b  c #414141",
"n  c #4E4E4E",
"m  c gray31",
"M  c #505050",
"N  c gray35",
"B  c gray36",
"V  c gray37",
"C  c #656565",
"Z  c #676767",
"A  c #6A6A6A",
"S  c #6D6D6D",
"D  c gray43",
"F  c #6F6F6F",
"G  c gray44",
"H  c #717171",
"J  c #727272",
"K  c gray45",
"L  c #767676",
"P  c #777777",
"I  c gray47",
"U  c #7C7C7C",
"Y  c gray49",
"T  c #808080",
"R  c #818181",
"E  c gray51",
"W  c #838383",
"Q  c #848484",
"!  c #868686",
"~  c #888888",
"^  c #898989",
"/  c gray54",
"(  c #8B8B8B",
")  c gray55",
"_  c #8E8E8E",
"`  c gray56",
"'  c gray57",
"]  c #929292",
"[  c #939393",
"{  c gray58",
"}  c #959595",
"|  c gray59",
" . c #979797",
".. c #989898",
"X. c gray60",
"o. c #9A9A9A",
"O. c #9B9B9B",
"+. c gray61",
"@. c gray62",
"#. c gray63",
"$. c #A2A2A2",
"%. c gray64",
"&. c gray65",
"*. c #A7A7A7",
"=. c gray66",
"-. c #A9A9A9",
";. c gray67",
":. c #ACACAC",
">. c #B1B1B1",
",. c #B2B2B2",
"<. c gray71",
"1. c #B7B7B7",
"2. c #B9B9B9",
"3. c gray73",
"4. c #BCBCBC",
"5. c gray74",
"6. c #C0C0C0",
"7. c gray76",
"8. c #C3C3C3",
"9. c gray77",
"0. c #C5C5C5",
"q. c #C6C6C6",
"w. c gray79",
"e. c #CACACA",
"r. c #CDCDCD",
"t. c #CECECE",
"y. c gray82",
"u. c LightGray",
"i. c gray83",
"p. c #D5D5D5",
"a. c gray84",
"s. c #D7D7D7",
"d. c #D8D8D8",
"f. c gray85",
"g. c #DADADA",
"h. c gray86",
"j. c gainsboro",
"k. c #DDDDDD",
"l. c gray87",
"z. c #DFDFDF",
"x. c gray88",
"c. c gray89",
"v. c gray90",
"b. c #E6E6E6",
"n. c #E9E9E9",
"m. c #EAEAEA",
"M. c gray92",
"N. c #ECECEC",
"B. c gray93",
"V. c #EEEEEE",
"C. c gray94",
"Z. c gray95",
"A. c #F3F3F3",
"S. c #F4F4F4",
"D. c gray96",
"F. c gray97",
"G. c #F8F8F8",
"H. c #F9F9F9",
"J. c gray98",
"K. c #FBFBFB",
"L. c gray99",
"P. c #FDFDFD",
"I. c #FEFEFE",
"U. c white",
/* pixels */
"o o o o o o o o o o o o o o o o o o o o o o o o o o o o o o o o ",
"o o o o o o 9 r r O o o o o o o o o o o o o o r p r o o o o o o ",
"o o o o o = o o o o & o o o o o o o o o o o O o o o o o o o o o ",
"o o o o , o H ' _ x o & o o o o o o o o o o p E ' Y o o o o o o ",
"& r p 6 9 o t.P.P.Y o h o o o o o o o O s & n K.K.l.o o 9 r s , ",
"O o O o l o y.P.P.F o o o o o o o o o O o o r K.P.M.o 6 o o o o ",
"x _ ' P o o ;.M.q.I ' Q 4 o O o o o O o I +.P 3.v.4.o o C | _ n ",
"H P.P.t.o r o o O f.P.D.v = h p r s h O x.P.N.l o o s o 3.P.P.X.",
"F K.P.t.o p o o o N.P.N.o o o o o o o o x.P.D.h o o p O ,.P.P.| ",
"H K.P.e.o o F | / N.D.K.| ' / _ _ _ | / v.P.K.X.' I 4 o <.K.P.X.",
"H K.P.y.o o y.P.P.P.P.P.P.P.P.P.P.P.K.P.P.K.P.P.P.M.& o 4.P.P.| ",
"H P.P.e.o o q.P.P.P.P.P.P.D.P.P.K.P.P.P.P.P.K.P.P.x.O o :.P.P.+.",
"F P.P.x./ Q l.P.K.v.f.f.K.P.P.P.P.P.P.P.v.y.x.K.P.N./ / t.P.P.X.",
"H K.P.P.P.P.P.P.P.H o N P.P.P.P.P.P.P.P.E o v D.P.P.K.P.K.P.P.X.",
"H P.P.P.K.P.P.P.P.A o n K.P.P.P.P.P.P.P.E o s D.P.P.P.P.P.P.P.+.",
"H P.P.P.P.P.P.P.P.<./ #.P.P.P.P.P.P.P.P.3.Q +.P.P.P.P.P.P.P.P.| ",
"F P.P.P.P.P.P.P.P.P.P.P.P.P.P.P.P.P.P.P.P.P.P.P.P.P.P.P.P.K.P.X.",
"P P.P.P.P.K.P.P.P.P.P.P.P.P.P.P.P.P.P.P.P.P.P.P.P.P.P.P.P.P.P.X.",
"N f.f.M.P.P.P.P.P.P.P.K.P.P.P.P.K.P.K.P.P.P.P.P.P.P.P.P.Z.y.l.Q ",
"o o o X.P.K.P.P.P.P.K.P.P.P.K.P.P.P.P.P.K.P.P.P.P.P.P.P.3.o o o ",
"o p o ;.P.P.P.P.P.P.P.P.K.P.P.P.P.P.P.P.P.D.P.P.P.P.P.K.q.o p o ",
"o p o / a.y.Z.P.P.l.l.f.f.a.l.f.f.f.f.f.f.f.l.D.P.D.t.l.&.o r o ",
"o o O o o o q.P.P.F o o O o o o o o o o o o 9 D.P.l.o o o o o o ",
"o o = o o o t.P.P.Y o s = 4 = 4 4 4 4 , 9 o n K.P.v.o o o & o o ",
"o = o B #._ 7.f.a.C o 9 & = & = & = & & , o c t.l.q.| +.H o & o ",
"o s o #.P.P.&.o o o O o o o o o o o o o o o o o o Q P.P.7.o r O ",
"o s o ,.K.P.;.o h o o o o o O o o o o o o o o s o / P.P.7.o p o ",
"o 9 o Q f.l._ o r o o o o o o o o o o o O o o 9 o F f.f.&.o 9 o ",
"o o & o o o o = o o o o o o o o o o o o o o o o & o o o o = o o ",
"o o o & , 4 = o o o o o o o O o o o o o o o o o o & 4 6 = o o o ",
"o o o O & & & o o o o o o o o o o o o o o o o o o o O , o o o o ",
"o o o o o o o o o o o o o o o o o o o o o o o o o o O o o o o o "
};
