/* XPM */
static char *f3c323c8ac124ef4d2c89bd4f310503adN0JoOZZ2P9WBWGP[] = {
/* columns rows colors chars-per-pixel */
"32 32 174 2 ",
"   c black",
".  c #010101",
"X  c #020202",
"o  c gray1",
"O  c #040404",
"+  c gray2",
"@  c #060606",
"#  c #070707",
"$  c gray3",
"%  c #090909",
"&  c gray4",
"*  c #0B0B0B",
"=  c #0C0C0C",
"-  c gray5",
";  c #0E0E0E",
":  c gray6",
">  c #101010",
",  c #111111",
"<  c gray7",
"1  c #131313",
"2  c gray8",
"3  c #151515",
"4  c #161616",
"5  c #181818",
"6  c #191919",
"7  c gray10",
"8  c gray11",
"9  c #1D1D1D",
"0  c #1E1E1E",
"q  c gray12",
"w  c #202020",
"e  c #222222",
"r  c #232323",
"t  c gray14",
"y  c #252525",
"u  c gray15",
"i  c #272727",
"p  c #282828",
"a  c gray16",
"s  c #2A2A2A",
"d  c gray17",
"f  c #2C2C2C",
"g  c #2F2F2F",
"h  c gray19",
"j  c #313131",
"k  c #353535",
"l  c #393939",
"z  c #3A3A3A",
"x  c #3E3E3E",
"c  c #3F3F3F",
"v  c #414141",
"b  c gray26",
"n  c #444444",
"m  c gray27",
"M  c #464646",
"N  c gray28",
"B  c #484848",
"V  c #494949",
"C  c #4C4C4C",
"Z  c gray30",
"A  c #505050",
"S  c gray32",
"D  c #535353",
"F  c gray33",
"G  c #555555",
"H  c #585858",
"J  c gray35",
"K  c #5B5B5B",
"L  c #656565",
"P  c gray40",
"I  c #686868",
"U  c DimGray",
"Y  c #6C6C6C",
"T  c #6F6F6F",
"R  c gray44",
"E  c #717171",
"W  c #727272",
"Q  c gray45",
"!  c gray46",
"~  c #767676",
"^  c #777777",
"/  c gray47",
"(  c #797979",
")  c gray49",
"_  c gray50",
"`  c #818181",
"'  c gray52",
"]  c #8B8B8B",
"[  c gray55",
"{  c #8D8D8D",
"}  c #939393",
"|  c #959595",
" . c gray59",
".. c #9A9A9A",
"X. c gray61",
"o. c #9D9D9D",
"O. c #9F9F9F",
"+. c #A0A0A0",
"@. c gray64",
"#. c #A4A4A4",
"$. c #A5A5A5",
"%. c gray65",
"&. c #A7A7A7",
"*. c gray66",
"=. c #A9A9A9",
"-. c #AAAAAA",
";. c gray67",
":. c #ACACAC",
">. c gray68",
",. c #AEAEAE",
"<. c #AFAFAF",
"1. c gray69",
"2. c #B1B1B1",
"3. c gray71",
"4. c #B6B6B6",
"5. c gray72",
"6. c #B9B9B9",
"7. c #BBBBBB",
"8. c #BCBCBC",
"9. c gray74",
"0. c gray",
"q. c #C0C0C0",
"w. c #C1C1C1",
"e. c gray76",
"r. c #C5C5C5",
"t. c #C6C6C6",
"y. c gray78",
"u. c #C8C8C8",
"i. c gray79",
"p. c #CACACA",
"a. c #CBCBCB",
"s. c gray80",
"d. c #D0D0D0",
"f. c gray82",
"g. c #D2D2D2",
"h. c gray83",
"j. c gray84",
"k. c #D8D8D8",
"l. c #DADADA",
"z. c gray86",
"x. c gainsboro",
"c. c gray87",
"v. c #DFDFDF",
"b. c gray88",
"n. c #E1E1E1",
"m. c #E2E2E2",
"M. c gray89",
"N. c #E4E4E4",
"B. c #E6E6E6",
"V. c #E7E7E7",
"C. c gray91",
"Z. c #E9E9E9",
"A. c #EAEAEA",
"S. c gray92",
"D. c #ECECEC",
"F. c gray93",
"G. c #EEEEEE",
"H. c #EFEFEF",
"J. c gray94",
"K. c #F1F1F1",
"L. c gray95",
"P. c #F3F3F3",
"I. c #F4F4F4",
"U. c gray96",
"Y. c #F6F6F6",
"T. c gray97",
"R. c #F8F8F8",
"E. c #F9F9F9",
"W. c gray98",
"Q. c #FBFBFB",
"!. c gray99",
"~. c #FDFDFD",
"^. c #FEFEFE",
"/. c white",
/* pixels */
"  =   =   &     & O     O         O O O       O     O   =   =   ",
"O           & =       O &     &       O = O     = &       O &   ",
"      O &       O &     O O   O O   O         O       O   O     ",
"  &       > =     &   O   &         &       O   O & =       O O ",
"  & O &               &   O   = &       &     &         >   O   ",
"        t 7 :.H.Z.( 4 9 O &         O   9 4 ~ Z.Z.3.9 9   O     ",
"        p   9././.Y   =   O         O   >   L T./.u.O 9   O     ",
"  >   O r   -.x.z...~ R >     O       = ~ ~ | z.x.:.  r =   O & ",
"O         O   & O h./.H.t p p r p r f O P./.Z.      > = =       ",
"  4       7     O g.Q.z.  =         =   s.Q.h.      > O     &   ",
"&   & = 4 = { :.#.H./.P.-.:.-.#.-.#.:...Q./.T.o.2.{ & O 4 =   & ",
"    O   l   5././.P.T.P./.Q././././.Q.P./.Q.T././.3.& p         ",
"  & & = O   9.Q.Q./././.Q.T.P././.Q.P./.Q./.Q././.u.O O &       ",
"  t   Y z.z.Q.Q.T.-.~ | T.Q.T././.Q.T.T.-.( @.P./.T.n.x.'   t   ",
"  &   ( /././.P./.I   v /././.T./././.P.I   L /.Q.T././.2.  4   ",
"& S p ` Q./.Q.Q./.] 7 R T.Q.Q././././.P.' > ` /./.Q././.} 4 M 4 ",
"k Z./.Z.Q./.P././.P.T.Z././.Q.Q.Q./././.Q.T.T././.H./.Q.P.Q.T.B ",
"v H./.T.Q././.T./././.Q././././.Q./././././././.T.Q./././.Q.T.S ",
"B P././.y.y.Q.P./.T./.P.T.Q././.T./.Q./.H.Q.Q.Q.P.Q.u.e././.Q.J ",
"j H./.y.=   3.Q./.Q./.T././././././.Q./.Q././.Q./.5.O O 3.Q.Q.C ",
"x P./.z.> O e.P./.T.Q././.Q././././.Q./././.T.T.T.u.& O u.Q./.G ",
"l H./.z.    s././.u.o.-.#.o.#.-.#.#.-.:.#...y././.h.    y.Q.T.C ",
"M P.Q.x.&   3.H.H.R   &             O   =   L H.B.e.O & u.Q.P.G ",
"l H./.x.    9././.) O t 7 9 9 j j 9 9 > p > R Q./.u.    y./.T.B ",
"4 G ~ B O O v ~ C z.x.Z.T.Z.5.    :.H.P.B.n.g.S ) v O O M ~ G 9 ",
"O         = O   = Z./.Q.Q./.n.    x./.T.T./.B.&   & =       O O ",
"  4 p 7     = t   y.T.B.n.Z.e.  & 5.B.B.Z.H.9.  r =     9 f 4   ",
"&             & 4 O   = &     O   O =     = & & O             O ",
"    O & &     O     O     >     &   &         & O     O &       ",
"      & O         O   > >   O O   > O & = O =         O O       ",
"O             &   = O       &     &     &   >   &             O ",
"&         O     =       & &   O     O = O     &     O O         "
};
