/* XPM */
static char *_33e47273ca945fcca896eb094826d83hckzL3YCk8ICAtwQ[] = {
/* columns rows colors chars-per-pixel */
"32 32 2 1 ",
"  c black",
". c #BEFFFF",
/* pixels */
"                                ",
"                                ",
"      .  ..  ..  ..  ..  ..     ",
"     . ..  ..  ..  ..  ..  .    ",
"      .                   .     ",
"      .                   .     ",
"     .    .............    .    ",
"     .   .             .   .    ",
"      .  .             .  .     ",
"      .  .   .......   .  .     ",
"     .   .             .   .    ",
"     .   ..  .......   .   .    ",
"      .  ...           .  .     ",
"      .  ..  .......   .  .     ",
"     .   .             .   .    ",
"     .   .             .   .    ",
"      .  .         ..  .  .     ",
"      .  .         ..  .  .     ",
"     .   .             .   .    ",
"     .   .             .   .    ",
"      .  .   .......   .  .     ",
"      .  .             .  .     ",
"     .   .   .......   .   .    ",
"     .   ..            .   .    ",
"      .  ... .......   .  .     ",
"      .  ..            .  .     ",
"     .   .   .......   .   .    ",
"     .   .             .   .    ",
"      .  .             .  .     ",
"      .   .............   .     ",
"      .                   .     ",
"                                "
};
