/* XPM */
static char *_73485416a504ce5ab48204b25d70b49yrH3YEnOSHJmwjBB[] = {
/* columns rows colors chars-per-pixel */
"32 32 2 1 ",
"  c black",
". c white",
/* pixels */
"                                ",
"                                ",
"       ...................      ",
"       ..               ..      ",
"       . .             . .      ",
"       .                 .      ",
"       .                 .      ",
"       .     . . . .     .      ",
"       .                 .      ",
"       .                 .      ",
"       ..    . . . .     .      ",
"       . .               .      ",
"       ..                .      ",
"       .                 .      ",
"       .                 .      ",
"       .            .    .      ",
"       .           . .   .      ",
"       .          . . .  .      ",
"       .           . .   .      ",
"       .            .    .      ",
"       .                 .      ",
"       .                 .      ",
"       ..                .      ",
"       . .               .      ",
"       ..                .      ",
"       .                 .      ",
"       .                 .      ",
"       .                 .      ",
"       . .             . .      ",
"       ..               ..      ",
"       ...................      ",
"                                "
};
