/* XPM */
static char *_7a45d4dcd6f4b3cf0428b5e61dd9b39A67K45ku77mjUPFk[] = {
/* columns rows colors chars-per-pixel */
"32 32 2 1 ",
"  c black",
". c #B8FFFF",
/* pixels */
"                                ",
"                                ",
"      .  ..  ..  ..  ..  ..     ",
"     . ..  ..  ..  ..  ..  .    ",
"      .                   .     ",
"      .  ...............  .     ",
"     .  .               .  .    ",
"     .  .               .  .    ",
"      . .               . .     ",
"      . .               . .     ",
"     .  .               .  .    ",
"     .  ..              .  .    ",
"      . . .             . .     ",
"      . ..              . .     ",
"     .  .               .  .    ",
"     .  .           .   .  .    ",
"      . .          . .  . .     ",
"      . .         . . . . .     ",
"     .  .          . .  .  .    ",
"     .  .           .   .  .    ",
"      . .               . .     ",
"      . .               . .     ",
"     .  .               .  .    ",
"     .  ..              .  .    ",
"      . . .             . .     ",
"      . ..              . .     ",
"     .  .               .  .    ",
"     .  .               .  .    ",
"      . .               . .     ",
"      . .               . .     ",
"      .  ...............  .     ",
"                                "
};
