/* XPM */
static char *_df118e237b1476abaa713842275c3da92unEHgIekE9Plza[] = {
/* columns rows colors chars-per-pixel */
"32 32 2 1 ",
"  c black",
". c #D8FFFF",
/* pixels */
"                                ",
"                                ",
"      .....................     ",
"     .......................    ",
"     ..                   ..    ",
"     ..                   ..    ",
"     ..   .............   ..    ",
"     ..  ...............  ..    ",
"     ..  ...         ...  ..    ",
"     ..  ...............  ..    ",
"     ..  ...         ...  ..    ",
"     ..   ..............  ..    ",
"     ..    .         ...  ..    ",
"     ..   ..............  ..    ",
"     ..  ...         ...  ..    ",
"     ..  ...............  ..    ",
"     ..  ..........   ..  ..    ",
"     ..  ..........   ..  ..    ",
"     ..  ..........   ..  ..    ",
"     ..  ...............  ..    ",
"     ..  ...         ...  ..    ",
"     ..  ...............  ..    ",
"     ..   ..         ...  ..    ",
"     ..    .............  ..    ",
"     ..   ..         ...  ..    ",
"     ..  ...............  ..    ",
"     ..  ...         ...  ..    ",
"     ..  ...............  ..    ",
"     ..  ...         ...  ..    ",
"     ..   .............   ..    ",
"      .                   .     ",
"                                "
};
