/* XPM */
static char *_c73dc1d490f4d92f552a6f4a1d4093fd9VyyWbafMNn5jaL[] = {
/* columns rows colors chars-per-pixel */
"32 32 2 1 ",
"  c black",
". c LightCyan",
/* pixels */
"                                ",
"                                ",
"      .  ..  ..  ..  ..  ..     ",
"     . ..  ..  ..  ..  ..  .    ",
"      .                   .     ",
"      .                   .     ",
"     .    .  ..  ..  ..    .    ",
"     .   ...............   .    ",
"      .   .           ..  .     ",
"      .   .           .   .     ",
"     .   ..           .    .    ",
"     .    ..          ..   .    ",
"      .   ...         ..  .     ",
"      .   ..          .   .     ",
"     .   ..           .    .    ",
"     .    .           ..   .    ",
"      .   .        .. ..  .     ",
"      .  ..        .. .   .     ",
"     .   ..           .    .    ",
"     .    .           ..   .    ",
"      .   .           ..  .     ",
"      .  ..           .   .     ",
"     .    .           .    .    ",
"     .    ..          ..   .    ",
"      .   ...         ..  .     ",
"      .  ...          .   .     ",
"     .    .           .    .    ",
"     .    .           ..   .    ",
"      .  ..           ..  .     ",
"      .   .............   .     ",
"      .                   .     ",
"                                "
};
