/* XPM */
static char *d6b3ec8fe6504356efe2a0bda72577d2qXriRqeiUJeDWnyO[] = {
/* columns rows colors chars-per-pixel */
"32 32 2 1 ",
"  c black",
". c white",
/* pixels */
"                                ",
"                                ",
"      .....................     ",
"     .......................    ",
"     ..                   ..    ",
"     .. ................. ..    ",
"     .. ................. ..    ",
"     .. ................. ..    ",
"     .. ................. ..    ",
"     .. ................. ..    ",
"     .. ................. ..    ",
"     ..  ................ ..    ",
"     ..   ............... ..    ",
"     ..  ................ ..    ",
"     .. ................. ..    ",
"     .. ................. ..    ",
"     .. ............   .. ..    ",
"     .. ............   .. ..    ",
"     .. ............   .. ..    ",
"     .. ................. ..    ",
"     .. ................. ..    ",
"     .. ................. ..    ",
"     ..  ................ ..    ",
"     ..   ............... ..    ",
"     ..  ................ ..    ",
"     .. ................. ..    ",
"     .. ................. ..    ",
"     .. ................. ..    ",
"   .... ................. ....  ",
"   .... ................. ....  ",
"                                ",
"                                "
};
