/* XPM */
static char *_b5d01a01309463bcf8ae67787fbe8a4AhUMfsAKpHHjTjn1[] = {
/* columns rows colors chars-per-pixel */
"32 32 2 1 ",
"  c black",
". c #B8FFFF",
/* pixels */
"                                ",
"                                ",
"      .  ..  ..  ..  ..  ..     ",
"     . ..  ..  ..  ..  ..  .    ",
"      .                   .     ",
"      .  . .. .. .. .. .  .     ",
"     .  .               .  .    ",
"     .                     .    ",
"      . .               . .     ",
"      . .               . .     ",
"     .                     .    ",
"     .   .              .  .    ",
"      . . .             . .     ",
"      .  .                .     ",
"     .  .               .  .    ",
"     .  .           .   .  .    ",
"      .            . .    .     ",
"      . .         . . . . .     ",
"     .  .          . .  .  .    ",
"     .              .      .    ",
"      . .               . .     ",
"      . .               . .     ",
"     .                     .    ",
"     .   .              .  .    ",
"      . . .             . .     ",
"      .  .                .     ",
"     .  .               .  .    ",
"     .  .               .  .    ",
"      .                   .     ",
"      . .               . .     ",
"      .  . .. .. .. .. .  .     ",
"                                "
};
