/* XPM */
static char *_8f9d826913647c3d327ab5b4fd997e048wGqHGA1Zr0rnQB[] = {
/* columns rows colors chars-per-pixel */
"32 32 2 1 ",
"  c black",
". c LightCyan",
/* pixels */
"                                ",
"                                ",
"      .  ..  ..  ..  ..  ..     ",
"     . ..  ..  ..  ..  ..  .    ",
"      .                   .     ",
"      .                   .     ",
"     .    .  ..  ..  ..    .    ",
"     .   ...............   .    ",
"      .   ..         ...  .     ",
"      .   .............   .     ",
"     .   ...         ..    .    ",
"     .    ..............   .    ",
"      .    .         ...  .     ",
"      .   .............   .     ",
"     .   ...         ..    .    ",
"     .    ..............   .    ",
"      .   .......... ...  .     ",
"      .  ..........   .   .     ",
"     .   ........... ..    .    ",
"     .    ..............   .    ",
"      .   ..         ...  .     ",
"      .  ..............   .     ",
"     .    ..         ..    .    ",
"     .     .............   .    ",
"      .   ..         ...  .     ",
"      .  ..............   .     ",
"     .    ..         ..    .    ",
"     .    ..............   .    ",
"      .  ...         ...  .     ",
"      .   .............   .     ",
"      .                   .     ",
"                                "
};
