/* XPM */
static char *d658952fb0a843adad838566c37a16badTmOf9G86KMtOFCo[] = {
/* columns rows colors chars-per-pixel */
"32 32 2 1 ",
"  c black",
". c LightCyan",
/* pixels */
"                                ",
"                                ",
"      .  ..  ..  ..  ..  ..     ",
"     .......................    ",
"      .                   .     ",
"      .                   .     ",
"     ..   .  ..  ..  ..   ..    ",
"     ..  ...............  ..    ",
"      .   ..         ...  .     ",
"      .   .............   .     ",
"     ..  ...         ..   ..    ",
"     ..   ..............  ..    ",
"      .    .         ...  .     ",
"      .   .............   .     ",
"     ..  ...         ..   ..    ",
"     ..   ..............  ..    ",
"      .   .......... ...  .     ",
"      .  ..........   .   .     ",
"     ..  ........... ..   ..    ",
"     ..   ..............  ..    ",
"      .   ..         ...  .     ",
"      .  ..............   .     ",
"     ..   ..         ..   ..    ",
"     ..    .............  ..    ",
"      .   ..         ...  .     ",
"      .  ..............   .     ",
"     ..   ..         ..   ..    ",
"     ..   ..............  ..    ",
"      .  ...         ...  .     ",
"      .   .............   .     ",
"      .                   .     ",
"                                "
};
