/* XPM */
static char *f86a4f0f42ce4fe79605854e76dfac06TQeFr9DLV7xPO6pj[] = {
/* columns rows colors chars-per-pixel */
"32 32 2 1 ",
"  c black",
". c white",
/* pixels */
"                                ",
"            ......              ",
"           ...  ...             ",
"          ..       .            ",
"          ..       ..           ",
"         ..        ..           ",
"         .. ... .....           ",
"         .. ..  .. ..           ",
"         ..         .           ",
"         ..   .     .           ",
"          .  .....  .           ",
"          ....   ....           ",
"          ..  ..  ..            ",
"           ..    ..             ",
"            ......              ",
"        .... .... ...           ",
"       ...... .. .....          ",
"       ......   .......         ",
"      ...   . . . ......        ",
"     .... ...   . .......       ",
"    .....   . . . ... ...       ",
"    ... . ...   . ...  ...      ",
"  ....  .   . . .   .   ....    ",
"  . .   .....   .....    . .    ",
"   ..                    ..     ",
"        .............           ",
"        .............           ",
"        .....   .....           ",
"        .....   .....           ",
"                                ",
"      .......   .......         ",
"                                "
};
