/* XPM */
static char *_53ff6c012374f50fd0945b9cd65870597N9cwRS6TI6ZUiC[] = {
/* columns rows colors chars-per-pixel */
"32 32 2 1 ",
"  c black",
". c white",
/* pixels */
"                                ",
"            ......              ",
"           ...  ...             ",
"          ..       .            ",
"          ..       ..           ",
"         ..        ..           ",
"         .. ... .....           ",
"  . .    .. ..  .. ..   . .     ",
"  . .    ..         .   . .     ",
"  ...    ..   .     .   ...     ",
"  ...     .  .....  .   ...     ",
"   .      ....   ....    .      ",
"  ...     ..  ..  ..    ...     ",
"  ...      ..    ..    ....     ",
"  ....      ......    .....     ",
"   ......... .... ........      ",
"    ......... .. ........       ",
"     ........   .........       ",
"      ...   . . . ......        ",
"        . ...   . ...           ",
"        .   . . . ...           ",
"        . ...   . ...           ",
"        .   . . .   .           ",
"        .....   .....           ",
"                                ",
"        .............           ",
"        .............           ",
"        .....   .....           ",
"        .....   .....           ",
"                                ",
"      .......   .......         ",
"                                "
};
