/* XPM */
static char *ae0043ea4be3486d87edac9c25efa29eP5bT6oYmSJyH1inS[] = {
/* columns rows colors chars-per-pixel */
"32 32 2 1 ",
"  c black",
". c white",
/* pixels */
"                                ",
"                                ",
"                                ",
"   ..........................   ",
"   ..........................   ",
"   ..                      ..   ",
"   .......                 ..   ",
"   .............           ..   ",
"   ..     ............     ..   ",
"   ..           .............   ",
"   ..                 .......   ",
"   .......                 ..   ",
"   .............           ..   ",
"   ..     ............     ..   ",
"   ..           .............   ",
"   ..                 .......   ",
"   .......                 ..   ",
"   .............           ..   ",
"   ..     ............     ..   ",
"   ..           .............   ",
"   ..                 .......   ",
"   .......                 ..   ",
"   .............           ..   ",
"   ..     ............     ..   ",
"   ..           .............   ",
"   ..                 .......   ",
"   ..                      ..   ",
"   ..........................   ",
"   ..........................   ",
"                                ",
"                                ",
"                                "
};
