/* XPM */
static char *d0a1ea45058840708fc0352ea9b7c98fUzMNXNX5fBnj5kl7[] = {
/* columns rows colors chars-per-pixel */
"32 32 2 1 ",
"  c black",
". c white",
/* pixels */
"                                ",
"                                ",
"                                ",
"    .  ..  ..  ..  ..  ..  .    ",
"   . ...................... .   ",
"   ..                      ..   ",
"    .... .                 .    ",
"    .. ....... .           .    ",
"   ..     . ........ .     ..   ",
"   ..           . ....... ...   ",
"    .                 . ....    ",
"    .... .                 .    ",
"   ... ....... .           ..   ",
"   ..     . ........ .     ..   ",
"    .           . ....... ..    ",
"    .                 . ....    ",
"   ..... .                 ..   ",
"   ... ....... .           ..   ",
"    .     . ........ .     .    ",
"    .           . ....... ..    ",
"   ..                 . .....   ",
"   ..... .                 ..   ",
"    .. ....... .           .    ",
"    .     . ........ .     .    ",
"   ..           . ....... ...   ",
"    .                 . ....    ",
"    .                      .    ",
"   . ...................... .   ",
"    .  ..  ..  ..  ..  .  ..    ",
"                                ",
"                                ",
"                                "
};
