/* XPM */
static char *_137299eac9742fdffd3c8db5b045c75HjpJP1J4R4JEVBMg[] = {
/* columns rows colors chars-per-pixel */
"32 32 2 1 ",
"  c black",
". c white",
/* pixels */
"    .       .        .       .  ",
"    .       .        .       .  ",
"  .....  .......  .......  .... ",
"...   ....     ....     ....  ..",
"  .....  .......  .......  .... ",
"                                ",
"   .......  .......  .......    ",
"....     ....     ....     .....",
"   .......  .......  .......    ",
"                                ",
"  .....  .......  .......  .... ",
"...   ....     ....     ....  ..",
"  .....  .......  .......  .... ",
"                                ",
"   .......  .......  .......    ",
"....     ....     ....     .....",
"   .......  .......  .......    ",
"                                ",
"  .....  .......  .......  .... ",
"...   ....     ....     ....  ..",
"  .....  .......  .......  .... ",
"                                ",
"   .......  .......  .......    ",
"....     ....     ....     .....",
"   .......  .......  .......    ",
"                                ",
"  .....  .......  .......  .... ",
"...   ....     ....     ....  ..",
"  .....  .......  .......  .... ",
"    .       .        .       .  ",
"    .       .        .       .  ",
"    .       .        .       .  "
};
