/* XPM */
static char *b8ea052555e14714fb457b98d767a5efUfqqByJf3RtwlDiZ[] = {
/* columns rows colors chars-per-pixel */
"32 32 2 1 ",
"  c black",
". c white",
/* pixels */
"                                ",
"                                ",
"                                ",
"    .  ..  ..  ..  ..  ..  .    ",
"   . ..  ..  ..  ..  ..  .. .   ",
"   .                       ..   ",
"    .... .                 .    ",
"    .. ....... .           .    ",
"   .      . ........ .      .   ",
"   .            . ....... . .   ",
"    .                 . ....    ",
"    .... .                 .    ",
"   . . ....... .            .   ",
"   .      . ........ .      .   ",
"    .           . ....... ..    ",
"    .                 . ....    ",
"   . ... .                  .   ",
"   . . ....... .            .   ",
"    .     . ........ .     .    ",
"    .           . ....... ..    ",
"   .                  . ... .   ",
"   . ... .                  .   ",
"    .. ....... .           .    ",
"    .     . ........ .     .    ",
"   .            . ....... . .   ",
"    .                 . ....    ",
"    .                      .    ",
"   . ..  ..  ..  ..  .. ..  .   ",
"    .  ..  ..  ..  ..  .  ..    ",
"                                ",
"                                ",
"                                "
};
