/* XPM */
static char *_9f6539c8c044303f50d635c5fda2b19xBPcmg1MuepyhdFo[] = {
/* columns rows colors chars-per-pixel */
"32 32 2 1 ",
"  c black",
". c white",
/* pixels */
"                                ",
"                                ",
"                                ",
"   ..........................   ",
"   .                        .   ",
"   .                        .   ",
"   .                        .   ",
"   .......                  .   ",
"   .      ......            .   ",
"   .            ......      .   ",
"   .                  .......   ",
"   .                        .   ",
"   .......                  .   ",
"   .      ......            .   ",
"   .            ......      .   ",
"   .                  .......   ",
"   .                        .   ",
"   .......                  .   ",
"   .      ......            .   ",
"   .            ......      .   ",
"   .                  .......   ",
"   .                        .   ",
"   .......                  .   ",
"   .      ......            .   ",
"   .            ......      .   ",
"   .                  .......   ",
"   .                        .   ",
"   .                        .   ",
"   ..........................   ",
"                                ",
"                                ",
"                                "
};
