/* XPM */
static char *af0678a675db47e1915cb748f406b301jRq7KsKh85BwAMPl[] = {
/* columns rows colors chars-per-pixel */
"32 32 2 1 ",
"  c None",
". c #E4E4E4",
/* pixels */
"  . ...                         ",
"  .....   ... . .... ..   ..... ",
"  .. ..   . ..... .....   . ... ",
"   ....   .... ........    .. . ",
"  .....   .. ..........   ..... ",
"  .....   .............    .... ",
"                          .. .. ",
"                          ..... ",
"                          . ... ",
"  ... . .... ..   .....   ..... ",
"  . ..... .....   . ...   .. .. ",
"  .... ........    .. .    .... ",
"  .. ..........   .....   ..... ",
"  .............    ....   ..... ",
"                  .. ..         ",
"                  .....         ",
"                  . ...         ",
".... ..   .....   .....   ... . ",
". .....   . ...   .. ..   . ....",
".......    .. .    ....   .... .",
".......   .....   .....   .. ...",
".......    ....   .....   ......",
"          .. ..                 ",
"          .....                 ",
"          . ...                 ",
"          .....   ... . .... .. ",
"  . ...   .. ..   . ..... ..... ",
"   .. .    ....   .... ........ ",
"  .....   .....   .. .......... ",
"   ....   .....   ............. ",
"  .. ..                         ",
"  .....                         "
};
